<svg width="520" height="486" viewBox="0 0 520 486" fill="none" xmlns="http://www.w3.org/2000/svg">
<path d="M260 455.5C403.585 455.5 520 353.645 520 228C520 102.355 403.585 0.5 260 0.5C116.415 0.5 0 102.355 0 228C0 285.2 24.1475 337.525 64.025 377.5C60.8725 410.52 50.4725 446.725 38.9675 473.895C36.4 479.94 41.3725 486.7 47.84 485.66C121.16 473.635 164.743 455.175 183.69 445.555C208.578 452.216 234.236 455.56 260 455.5Z" fill="url(#paint0_linear_0_1)"/>
<path d="M503.286 143.725H490.537C484.631 140.235 478.354 137.417 471.822 135.322C451.237 128.511 424.054 125 391 125C357.946 125 330.763 128.511 310.224 135.322C293.779 140.811 286.539 146.862 284.2 149.214C276.648 145.601 268.383 143.725 260.012 143.725C251.641 143.725 243.376 145.601 235.823 149.214C233.484 146.873 226.244 140.811 209.799 135.322C189.237 128.511 162.054 125 129 125C95.9459 125 68.7634 128.511 48.2245 135.322C41.693 137.417 35.416 140.235 29.5102 143.725H16.7143C11.7509 143.725 6.9909 145.698 3.48129 149.21C-0.0283232 152.721 -2 157.484 -2 162.45C-2 167.417 -0.0283232 172.179 3.48129 175.691C6.9909 179.203 11.7509 181.175 16.7143 181.175H16.9131C18.0828 234.378 24.4456 266.351 38.0954 289.114C46.646 303.81 59.7538 315.315 75.4304 321.883C89.7351 328.016 107.268 331 129 331C157.247 331 197.401 326.658 219.905 289.138C231.227 270.249 237.555 245.028 240.034 206.607C240.858 204.467 241.282 202.194 241.286 199.901C241.286 194.934 243.257 190.172 246.767 186.66C250.277 183.148 255.037 181.175 260 181.175C264.963 181.175 269.723 183.148 273.233 186.66C276.743 190.172 278.714 194.934 278.714 199.901C278.72 202.186 279.145 204.451 279.966 206.583C282.445 245.005 288.773 270.225 300.095 289.114C308.646 303.81 321.754 315.315 337.43 321.883C351.735 328.016 369.268 331 391 331C419.247 331 459.401 326.658 481.905 289.138C495.554 266.375 501.941 234.402 503.087 181.199H503.286C508.249 181.199 513.009 179.226 516.519 175.714C520.028 172.203 522 167.44 522 162.474C522 157.507 520.028 152.745 516.519 149.233C513.009 145.721 508.249 143.749 503.286 143.749V143.725Z" fill="url(#paint1_linear_0_1)"/>
<defs>
<linearGradient id="paint0_linear_0_1" x1="489" y1="308" x2="38.5" y2="158" gradientUnits="userSpaceOnUse">
<stop stop-color="#E5E7EB"/>
<stop offset="1" stop-color="#6B7280"/>
</linearGradient>
<linearGradient id="paint1_linear_0_1" x1="88.5" y1="207" x2="454.5" y2="296" gradientUnits="userSpaceOnUse">
<stop stop-color="#111827"/>
<stop offset="1" stop-color="#374151"/>
</linearGradient>
</defs>
</svg>
